<svg id="visual" viewBox="0 0 960 5549" width="960" height="5549" xmlns="http://www.w3.org/2000/svg" xmlns:xlink="http://www.w3.org/1999/xlink" version="1.1"><path d="M0 167L53.3 204C106.7 241 213.3 315 320 315C426.7 315 533.3 241 640 194.8C746.7 148.7 853.3 130.3 906.7 121.2L960 112L960 0L906.7 0C853.3 0 746.7 0 640 0C533.3 0 426.7 0 320 0C213.3 0 106.7 0 53.3 0L0 0Z" fill="#3d7a90"></path><path d="M0 667L53.3 722.5C106.7 778 213.3 889 320 916.7C426.7 944.3 533.3 888.7 640 777.7C746.7 666.7 853.3 500.3 906.7 417.2L960 334L960 110L906.7 119.2C853.3 128.3 746.7 146.7 640 192.8C533.3 239 426.7 313 320 313C213.3 313 106.7 239 53.3 202L0 165Z" fill="#42849b"></path><path d="M0 1166L53.3 1212.3C106.7 1258.7 213.3 1351.3 320 1342.2C426.7 1333 533.3 1222 640 1092.5C746.7 963 853.3 815 906.7 741L960 667L960 332L906.7 415.2C853.3 498.3 746.7 664.7 640 775.7C533.3 886.7 426.7 942.3 320 914.7C213.3 887 106.7 776 53.3 720.5L0 665Z" fill="#478da7"></path><path d="M0 1499L53.3 1536C106.7 1573 213.3 1647 320 1748.8C426.7 1850.7 533.3 1980.3 640 1897.2C746.7 1814 853.3 1518 906.7 1370L960 1222L960 665L906.7 739C853.3 813 746.7 961 640 1090.5C533.3 1220 426.7 1331 320 1340.2C213.3 1349.3 106.7 1256.7 53.3 1210.3L0 1164Z" fill="#4d97b2"></path><path d="M0 1610L53.3 1674.8C106.7 1739.7 213.3 1869.3 320 1980.3C426.7 2091.3 533.3 2183.7 640 2072.7C746.7 1961.7 853.3 1647.3 906.7 1490.2L960 1333L960 1220L906.7 1368C853.3 1516 746.7 1812 640 1895.2C533.3 1978.3 426.7 1848.7 320 1746.8C213.3 1645 106.7 1571 53.3 1534L0 1497Z" fill="#52a1be"></path><path d="M0 3330L53.3 3339.3C106.7 3348.7 213.3 3367.3 320 3256.5C426.7 3145.7 533.3 2905.3 640 2664.8C746.7 2424.3 853.3 2183.7 906.7 2063.3L960 1943L960 1331L906.7 1488.2C853.3 1645.3 746.7 1959.7 640 2070.7C533.3 2181.7 426.7 2089.3 320 1978.3C213.3 1867.3 106.7 1737.7 53.3 1672.8L0 1608Z" fill="#5ca9c6"></path><path d="M0 3774L53.3 3783.3C106.7 3792.7 213.3 3811.3 320 3672.7C426.7 3534 533.3 3238 640 2969.8C746.7 2701.7 853.3 2461.3 906.7 2341.2L960 2221L960 1941L906.7 2061.3C853.3 2181.7 746.7 2422.3 640 2662.8C533.3 2903.3 426.7 3143.7 320 3254.5C213.3 3365.3 106.7 3346.7 53.3 3337.3L0 3328Z" fill="#69afca"></path><path d="M0 4218L53.3 4319.8C106.7 4421.7 213.3 4625.3 320 4690.2C426.7 4755 533.3 4681 640 4597.7C746.7 4514.3 853.3 4421.7 906.7 4375.3L960 4329L960 2219L906.7 2339.2C853.3 2459.3 746.7 2699.7 640 2967.8C533.3 3236 426.7 3532 320 3670.7C213.3 3809.3 106.7 3790.7 53.3 3781.3L0 3772Z" fill="#76b5cd"></path><path d="M0 4718L53.3 4792C106.7 4866 213.3 5014 320 5078.7C426.7 5143.3 533.3 5124.7 640 5050.7C746.7 4976.7 853.3 4847.3 906.7 4782.7L960 4718L960 4327L906.7 4373.3C853.3 4419.7 746.7 4512.3 640 4595.7C533.3 4679 426.7 4753 320 4688.2C213.3 4623.3 106.7 4419.7 53.3 4317.8L0 4216Z" fill="#82bbd1"></path><path d="M0 5550L53.3 5550C106.7 5550 213.3 5550 320 5550C426.7 5550 533.3 5550 640 5550C746.7 5550 853.3 5550 906.7 5550L960 5550L960 4716L906.7 4780.7C853.3 4845.3 746.7 4974.7 640 5048.7C533.3 5122.7 426.7 5141.3 320 5076.7C213.3 5012 106.7 4864 53.3 4790L0 4716Z" fill="#8ec1d5"></path></svg>