<svg id="visual" viewBox="0 0 960 5540" width="960" height="5540" xmlns="http://www.w3.org/2000/svg" xmlns:xlink="http://www.w3.org/1999/xlink" version="1.1"><path d="M0 278L40 278C80 278 160 278 240 259.5C320 241 400 204 480 185.5C560 167 640 167 720 185.5C800 204 880 241 920 259.5L960 278L960 0L920 0C880 0 800 0 720 0C640 0 560 0 480 0C400 0 320 0 240 0C160 0 80 0 40 0L0 0Z" fill="#3d4677"></path><path d="M0 666L40 666C80 666 160 666 240 629C320 592 400 518 480 499.5C560 481 640 518 720 545.7C800 573.3 880 591.7 920 600.8L960 610L960 276L920 257.5C880 239 800 202 720 183.5C640 165 560 165 480 183.5C400 202 320 239 240 257.5C160 276 80 276 40 276L0 276Z" fill="#37406f"></path><path d="M0 887L40 905.5C80 924 160 961 240 933.3C320 905.7 400 813.3 480 785.7C560 758 640 795 720 804.3C800 813.7 880 795.3 920 786.2L960 777L960 608L920 598.8C880 589.7 800 571.3 720 543.7C640 516 560 479 480 497.5C400 516 320 590 240 627C160 664 80 664 40 664L0 664Z" fill="#313a68"></path><path d="M0 1885L40 1949.5C80 2014 160 2143 240 2161.3C320 2179.7 400 2087.3 480 2013.5C560 1939.7 640 1884.3 720 1912.2C800 1940 880 2051 920 2106.5L960 2162L960 775L920 784.2C880 793.3 800 811.7 720 802.3C640 793 560 756 480 783.7C400 811.3 320 903.7 240 931.3C160 959 80 922 40 903.5L0 885Z" fill="#2b3460"></path><path d="M0 2106L40 2170.7C80 2235.3 160 2364.7 240 2374C320 2383.3 400 2272.7 480 2198.8C560 2125 640 2088 720 2115.7C800 2143.3 880 2235.7 920 2281.8L960 2328L960 2160L920 2104.5C880 2049 800 1938 720 1910.2C640 1882.3 560 1937.7 480 2011.5C400 2085.3 320 2177.7 240 2159.3C160 2141 80 2012 40 1947.5L0 1883Z" fill="#262e59"></path><path d="M0 2383L40 2438.5C80 2494 160 2605 240 2605C320 2605 400 2494 480 2429.3C560 2364.7 640 2346.3 720 2383.3C800 2420.3 880 2512.7 920 2558.8L960 2605L960 2326L920 2279.8C880 2233.7 800 2141.3 720 2113.7C640 2086 560 2123 480 2196.8C400 2270.7 320 2381.3 240 2372C160 2362.7 80 2233.3 40 2168.7L0 2104Z" fill="#202952"></path><path d="M0 2660L40 2706.2C80 2752.3 160 2844.7 240 2844.7C320 2844.7 400 2752.3 480 2697C560 2641.7 640 2623.3 720 2651C800 2678.7 880 2752.3 920 2789.2L960 2826L960 2603L920 2556.8C880 2510.7 800 2418.3 720 2381.3C640 2344.3 560 2362.7 480 2427.3C400 2492 320 2603 240 2603C160 2603 80 2492 40 2436.5L0 2381Z" fill="#1c254c"></path><path d="M0 3159L40 3195.8C80 3232.7 160 3306.3 240 3278.7C320 3251 400 3122 480 3085.2C560 3048.3 640 3103.7 720 3149.8C800 3196 880 3233 920 3251.5L960 3270L960 2824L920 2787.2C880 2750.3 800 2676.7 720 2649C640 2621.3 560 2639.7 480 2695C400 2750.3 320 2842.7 240 2842.7C160 2842.7 80 2750.3 40 2704.2L0 2658Z" fill="#1b2448"></path><path d="M0 3713L40 3768.3C80 3823.7 160 3934.3 240 3897.3C320 3860.3 400 3675.7 480 3648C560 3620.3 640 3749.7 720 3805.2C800 3860.7 880 3842.3 920 3833.2L960 3824L960 3268L920 3249.5C880 3231 800 3194 720 3147.8C640 3101.7 560 3046.3 480 3083.2C400 3120 320 3249 240 3276.7C160 3304.3 80 3230.7 40 3193.8L0 3157Z" fill="#1a2245"></path><path d="M0 4765L40 4783.5C80 4802 160 4839 240 4820.7C320 4802.3 400 4728.7 480 4710.2C560 4691.7 640 4728.3 720 4737.5C800 4746.7 880 4728.3 920 4719.2L960 4710L960 3822L920 3831.2C880 3840.3 800 3858.7 720 3803.2C640 3747.7 560 3618.3 480 3646C400 3673.7 320 3858.3 240 3895.3C160 3932.3 80 3821.7 40 3766.3L0 3711Z" fill="#182141"></path><path d="M0 5209L40 5218.2C80 5227.3 160 5245.7 240 5227.2C320 5208.7 400 5153.3 480 5125.7C560 5098 640 5098 720 5098C800 5098 880 5098 920 5098L960 5098L960 4708L920 4717.2C880 4726.3 800 4744.7 720 4735.5C640 4726.3 560 4689.7 480 4708.2C400 4726.7 320 4800.3 240 4818.7C160 4837 80 4800 40 4781.5L0 4763Z" fill="#171f3e"></path><path d="M0 5541L40 5541C80 5541 160 5541 240 5541C320 5541 400 5541 480 5541C560 5541 640 5541 720 5541C800 5541 880 5541 920 5541L960 5541L960 5096L920 5096C880 5096 800 5096 720 5096C640 5096 560 5096 480 5123.7C400 5151.3 320 5206.7 240 5225.2C160 5243.7 80 5225.3 40 5216.2L0 5207Z" fill="#161e3a"></path></svg>