<?xml version="1.0" encoding="utf-8"?>
<!-- Generator: Adobe Illustrator 23.0.1, SVG Export Plug-In . SVG Version: 6.00 Build 0)  -->
<svg version="1.1" id="visual" xmlns="http://www.w3.org/2000/svg" xmlns:xlink="http://www.w3.org/1999/xlink" x="0px" y="0px"
	 viewBox="0 0 960 540" style="enable-background:new 0 0 960 540;" xml:space="preserve">
<style type="text/css">
	.st0{fill:#161E3A;}
	.st1{fill:#182040;}
	.st2{fill:#1A2345;}
	.st3{fill:#1C254B;}
	.st4{fill:#222A54;}
	.st5{fill:#2B335F;}
	.st6{fill:#343D6B;}
	.st7{fill:#3D4677;}
</style>
<path class="st0" d="M0,60l20-7.2c20-7.1,60-21.5,100-26s80,0.9,120,3.5c40,2.7,80,2.7,120,1.9c40-0.9,80-2.5,120,1.1
	C520,37,560,46,600,47.8c40,1.9,80-3.5,120-9.8s80-13.7,120-10.2s80,17.9,100,25l20,7.2V0h-20c-20,0-60,0-100,0s-80,0-120,0
	s-80,0-120,0s-80,0-120,0s-80,0-120,0s-80,0-120,0s-80,0-120,0S40,0,20,0H0V60z"/>
<path class="st1" d="M0,93l20,2.7c20,2.6,60,8,100,14.3s80,13.7,120,13.7s80-7.4,120-13.7s80-11.7,120-15.3c40-3.7,80-5.7,120-1.2
	s80,15.5,120,10.2c40-5.4,80-27,120-31.5s80,8.1,100,14.5l20,6.3V58l-20-7.2c-20-7.1-60-21.5-100-25S760,29.7,720,36
	s-80,11.7-120,9.8C560,44,520,35,480,31.3c-40-3.6-80-2-120-1.1c-40,0.8-80,0.8-120-1.9c-40-2.6-80-8-120-3.5s-80,18.9-100,26L0,58
	V93z"/>
<path class="st2" d="M0,136l20,4.5c20,4.5,60,13.5,100,20.7c40,7.1,80,12.5,120,12.5s80-5.4,120-13.4s80-18.6,120-20.5
	c40-1.8,80,5.2,120,13.2s80,17,120,7.2c40-9.9,80-38.5,120-40.4c40-1.8,80,23.2,100,35.7l20,12.5V91l-20-6.3c-20-6.4-60-19-100-14.5
	s-80,26.1-120,31.5c-40,5.3-80-5.7-120-10.2s-80-2.5-120,1.2c-40,3.6-80,9-120,15.3s-80,13.7-120,13.7s-80-7.4-120-13.7
	S40,96.3,20,93.7L0,91V136z"/>
<path class="st3" d="M0,201l20-1.8c20-1.9,60-5.5,100-4.7s80,6.2,120,11.5s80,10.7,120,4.3c40-6.3,80-24.3,120-30.5
	c40-6.1,80-0.5,120,8.5s80,21.4,120,10.5c40-10.8,80-44.8,120-48.3s80,23.5,100,37l20,13.5v-35l-20-12.5c-20-12.5-60-37.5-100-35.7
	c-40,1.9-80,30.5-120,40.4c-40,9.8-80,0.8-120-7.2s-80-15-120-13.2c-40,1.9-80,12.5-120,20.5s-80,13.4-120,13.4s-80-5.4-120-12.5
	C80,152,40,143,20,138.5L0,134V201z"/>
<path class="st4" d="M0,303l20-3.5C40,296,80,289,120,289s80,7,120,7s80-7,120-20.5s80-33.5,120-36.2c40-2.6,80,12,120,28.4
	c40,16.3,80,34.3,120,21.6c40-12.6,80-56,120-67.8s80,7.8,100,17.7l20,9.8v-50l-20-13.5c-20-13.5-60-40.5-100-37s-80,37.5-120,48.3
	c-40,10.9-80-1.5-120-10.5s-80-14.6-120-8.5c-40,6.2-80,24.2-120,30.5c-40,6.4-80,1-120-4.3s-80-10.7-120-11.5s-80,2.8-100,4.7
	L0,199V303z"/>
<path class="st5" d="M0,460l20-1.8c20-1.9,60-5.5,100-11.9c40-6.3,80-15.3,120-33.3s80-45,120-49.5S440,377,480,395s80,36,120,44.2
	c40,8.1,80,6.5,120-12.4c40-18.8,80-54.8,120-60.3s80,19.5,100,32l20,12.5V247l-20-9.8c-20-9.9-60-29.5-100-17.7s-80,55.2-120,67.8
	c-40,12.7-80-5.3-120-21.6c-40-16.4-80-31-120-28.4c-40,2.7-80,22.7-120,36.2S280,294,240,294s-80-7-120-7s-80,7-100,10.5L0,301V460
	z"/>
<path class="st6" d="M0,482l20-3.7c20-3.6,60-11,100-18.3s80-14.7,120-27.3C280,420,320,402,360,402s80,18,120,35.2
	c40,17.1,80,33.5,120,39s80,0.1,120-18.7s80-51.2,120-57.5s80,13.3,100,23.2l20,9.8v-24l-20-12.5c-20-12.5-60-37.5-100-32
	s-80,41.5-120,60.3c-40,18.9-80,20.5-120,12.4C560,429,520,411,480,393s-80-36-120-31.5S280,393,240,411s-80,27-120,33.3
	c-40,6.4-80,10-100,11.9L0,458V482z"/>
<path class="st7" d="M0,541h20c20,0,60,0,100,0s80,0,120,0s80,0,120,0s80,0,120,0s80,0,120,0s80,0,120,0s80,0,120,0s80,0,100,0h20
	V431l-20-9.8c-20-9.9-60-29.5-100-23.2s-80,38.7-120,57.5s-80,24.2-120,18.7s-80-21.9-120-39C440,418,400,400,360,400
	s-80,18-120,30.7c-40,12.6-80,20-120,27.3s-80,14.7-100,18.3L0,480V541z"/>
</svg>
