<svg id="visual" viewBox="0 0 540 960" width="540" height="960" xmlns="http://www.w3.org/2000/svg" xmlns:xlink="http://www.w3.org/1999/xlink" version="1.1"><path d="M0 78L9 76.3C18 74.7 36 71.3 54 69.7C72 68 90 68 108 69.7C126 71.3 144 74.7 162 74.7C180 74.7 198 71.3 216 71.3C234 71.3 252 74.7 270 76.3C288 78 306 78 324 78C342 78 360 78 378 78C396 78 414 78 432 78C450 78 468 78 486 76.3C504 74.7 522 71.3 531 69.7L540 68L540 0L531 0C522 0 504 0 486 0C468 0 450 0 432 0C414 0 396 0 378 0C360 0 342 0 324 0C306 0 288 0 270 0C252 0 234 0 216 0C198 0 180 0 162 0C144 0 126 0 108 0C90 0 72 0 54 0C36 0 18 0 9 0L0 0Z" fill="#161e3a"></path><path d="M0 164L9 162.5C18 161 36 158 54 154.8C72 151.7 90 148.3 108 149.8C126 151.3 144 157.7 162 157.7C180 157.7 198 151.3 216 151.3C234 151.3 252 157.7 270 159.3C288 161 306 158 324 156.5C342 155 360 155 378 156.5C396 158 414 161 432 162.5C450 164 468 164 486 160.8C504 157.7 522 151.3 531 148.2L540 145L540 66L531 67.7C522 69.3 504 72.7 486 74.3C468 76 450 76 432 76C414 76 396 76 378 76C360 76 342 76 324 76C306 76 288 76 270 74.3C252 72.7 234 69.3 216 69.3C198 69.3 180 72.7 162 72.7C144 72.7 126 69.3 108 67.7C90 66 72 66 54 67.7C36 69.3 18 72.7 9 74.3L0 76Z" fill="#171f3e"></path><path d="M0 327L9 327C18 327 36 327 54 327C72 327 90 327 108 327C126 327 144 327 162 327C180 327 198 327 216 328.7C234 330.3 252 333.7 270 333.7C288 333.7 306 330.3 324 328.7C342 327 360 327 378 327C396 327 414 327 432 330.3C450 333.7 468 340.3 486 337.2C504 334 522 321 531 314.5L540 308L540 143L531 146.2C522 149.3 504 155.7 486 158.8C468 162 450 162 432 160.5C414 159 396 156 378 154.5C360 153 342 153 324 154.5C306 156 288 159 270 157.3C252 155.7 234 149.3 216 149.3C198 149.3 180 155.7 162 155.7C144 155.7 126 149.3 108 147.8C90 146.3 72 149.7 54 152.8C36 156 18 159 9 160.5L0 162Z" fill="#182141"></path><path d="M0 375L9 375C18 375 36 375 54 373.5C72 372 90 369 108 369C126 369 144 372 162 372C180 372 198 369 216 370.7C234 372.3 252 378.7 270 378.7C288 378.7 306 372.3 324 370.7C342 369 360 372 378 373.5C396 375 414 375 432 376.7C450 378.3 468 381.7 486 378.5C504 375.3 522 365.7 531 360.8L540 356L540 306L531 312.5C522 319 504 332 486 335.2C468 338.3 450 331.7 432 328.3C414 325 396 325 378 325C360 325 342 325 324 326.7C306 328.3 288 331.7 270 331.7C252 331.7 234 328.3 216 326.7C198 325 180 325 162 325C144 325 126 325 108 325C90 325 72 325 54 325C36 325 18 325 9 325L0 325Z" fill="#1a2245"></path><path d="M0 423L9 423C18 423 36 423 54 421.5C72 420 90 417 108 417C126 417 144 420 162 420C180 420 198 417 216 418.7C234 420.3 252 426.7 270 426.7C288 426.7 306 420.3 324 418.7C342 417 360 420 378 421.5C396 423 414 423 432 424.7C450 426.3 468 429.7 486 426.5C504 423.3 522 413.7 531 408.8L540 404L540 354L531 358.8C522 363.7 504 373.3 486 376.5C468 379.7 450 376.3 432 374.7C414 373 396 373 378 371.5C360 370 342 367 324 368.7C306 370.3 288 376.7 270 376.7C252 376.7 234 370.3 216 368.7C198 367 180 370 162 370C144 370 126 367 108 367C90 367 72 370 54 371.5C36 373 18 373 9 373L0 373Z" fill="#1b2448"></path><path d="M0 471L9 472.7C18 474.3 36 477.7 54 477.7C72 477.7 90 474.3 108 472.7C126 471 144 471 162 471C180 471 198 471 216 474.3C234 477.7 252 484.3 270 482.8C288 481.3 306 471.7 324 468.3C342 465 360 468 378 471.2C396 474.3 414 477.7 432 479.3C450 481 468 481 486 476.2C504 471.3 522 461.7 531 456.8L540 452L540 402L531 406.8C522 411.7 504 421.3 486 424.5C468 427.7 450 424.3 432 422.7C414 421 396 421 378 419.5C360 418 342 415 324 416.7C306 418.3 288 424.7 270 424.7C252 424.7 234 418.3 216 416.7C198 415 180 418 162 418C144 418 126 415 108 415C90 415 72 418 54 419.5C36 421 18 421 9 421L0 421Z" fill="#1c254c"></path><path d="M0 663L9 664.7C18 666.3 36 669.7 54 669.7C72 669.7 90 666.3 108 664.7C126 663 144 663 162 661.5C180 660 198 657 216 660.3C234 663.7 252 673.3 270 674.8C288 676.3 306 669.7 324 666.3C342 663 360 663 378 664.7C396 666.3 414 669.7 432 669.7C450 669.7 468 666.3 486 663.2C504 660 522 657 531 655.5L540 654L540 450L531 454.8C522 459.7 504 469.3 486 474.2C468 479 450 479 432 477.3C414 475.7 396 472.3 378 469.2C360 466 342 463 324 466.3C306 469.7 288 479.3 270 480.8C252 482.3 234 475.7 216 472.3C198 469 180 469 162 469C144 469 126 469 108 470.7C90 472.3 72 475.7 54 475.7C36 475.7 18 472.3 9 470.7L0 469Z" fill="#202952"></path><path d="M0 731L9 731C18 731 36 731 54 731C72 731 90 731 108 731C126 731 144 731 162 729.3C180 727.7 198 724.3 216 725.8C234 727.3 252 733.7 270 735.3C288 737 306 734 324 730.8C342 727.7 360 724.3 378 724.3C396 724.3 414 727.7 432 729.3C450 731 468 731 486 729.3C504 727.7 522 724.3 531 722.7L540 721L540 652L531 653.5C522 655 504 658 486 661.2C468 664.3 450 667.7 432 667.7C414 667.7 396 664.3 378 662.7C360 661 342 661 324 664.3C306 667.7 288 674.3 270 672.8C252 671.3 234 661.7 216 658.3C198 655 180 658 162 659.5C144 661 126 661 108 662.7C90 664.3 72 667.7 54 667.7C36 667.7 18 664.3 9 662.7L0 661Z" fill="#262e59"></path><path d="M0 769L9 769C18 769 36 769 54 769C72 769 90 769 108 769C126 769 144 769 162 767.3C180 765.7 198 762.3 216 764C234 765.7 252 772.3 270 774C288 775.7 306 772.3 324 769C342 765.7 360 762.3 378 762.3C396 762.3 414 765.7 432 767.3C450 769 468 769 486 767.3C504 765.7 522 762.3 531 760.7L540 759L540 719L531 720.7C522 722.3 504 725.7 486 727.3C468 729 450 729 432 727.3C414 725.7 396 722.3 378 722.3C360 722.3 342 725.7 324 728.8C306 732 288 735 270 733.3C252 731.7 234 725.3 216 723.8C198 722.3 180 725.7 162 727.3C144 729 126 729 108 729C90 729 72 729 54 729C36 729 18 729 9 729L0 729Z" fill="#2b3460"></path><path d="M0 807L9 807C18 807 36 807 54 807C72 807 90 807 108 807C126 807 144 807 162 805.5C180 804 198 801 216 802.7C234 804.3 252 810.7 270 812.2C288 813.7 306 810.3 324 807.2C342 804 360 801 378 801C396 801 414 804 432 805.5C450 807 468 807 486 805.5C504 804 522 801 531 799.5L540 798L540 757L531 758.7C522 760.3 504 763.7 486 765.3C468 767 450 767 432 765.3C414 763.7 396 760.3 378 760.3C360 760.3 342 763.7 324 767C306 770.3 288 773.7 270 772C252 770.3 234 763.7 216 762C198 760.3 180 763.7 162 765.3C144 767 126 767 108 767C90 767 72 767 54 767C36 767 18 767 9 767L0 767Z" fill="#313a68"></path><path d="M0 923L9 923C18 923 36 923 54 923C72 923 90 923 108 923C126 923 144 923 162 923C180 923 198 923 216 923C234 923 252 923 270 923C288 923 306 923 324 923C342 923 360 923 378 923C396 923 414 923 432 923C450 923 468 923 486 923C504 923 522 923 531 923L540 923L540 796L531 797.5C522 799 504 802 486 803.5C468 805 450 805 432 803.5C414 802 396 799 378 799C360 799 342 802 324 805.2C306 808.3 288 811.7 270 810.2C252 808.7 234 802.3 216 800.7C198 799 180 802 162 803.5C144 805 126 805 108 805C90 805 72 805 54 805C36 805 18 805 9 805L0 805Z" fill="#37406f"></path><path d="M0 961L9 961C18 961 36 961 54 961C72 961 90 961 108 961C126 961 144 961 162 961C180 961 198 961 216 961C234 961 252 961 270 961C288 961 306 961 324 961C342 961 360 961 378 961C396 961 414 961 432 961C450 961 468 961 486 961C504 961 522 961 531 961L540 961L540 921L531 921C522 921 504 921 486 921C468 921 450 921 432 921C414 921 396 921 378 921C360 921 342 921 324 921C306 921 288 921 270 921C252 921 234 921 216 921C198 921 180 921 162 921C144 921 126 921 108 921C90 921 72 921 54 921C36 921 18 921 9 921L0 921Z" fill="#3d4677"></path></svg>